<svg width="1188" height="1926" viewBox="0 0 1188 1926" fill="none" xmlns="http://www.w3.org/2000/svg">
<g>
<mask id="path-1-inside-1_350_446" fill="white">
<path d="M44 80C44 57.9086 61.9086 40 84 40H1104C1126.09 40 1144 57.9086 1144 80V1870C1144 1892.09 1126.09 1910 1104 1910H84C61.9086 1910 44 1892.09 44 1870V80Z"/>
</mask>
<path d="M44 80C44 57.9086 61.9086 40 84 40H1104C1126.09 40 1144 57.9086 1144 80V1870C1144 1892.09 1126.09 1910 1104 1910H84C61.9086 1910 44 1892.09 44 1870V80Z" fill="white" shape-rendering="crispEdges"/>
<path d="M44 80C44 52.3858 66.3858 30 94 30H1094C1121.61 30 1144 52.3858 1144 80C1144 63.4315 1126.09 50 1104 50H84C61.9086 50 44 63.4315 44 80ZM44 80M1144 1910H44H1144M1144 1910M44 1910V40V1910M44 1910M1144 40V1910V40" fill="url(#paint0_linear_350_446)" mask="url(#path-1-inside-1_350_446)"/>
<path d="M493.291 153.2C493.291 147.556 495.127 141.232 499.139 136.54C503.151 131.848 509.271 128.448 516.139 128.448C523.007 128.448 529.127 131.848 533.139 136.54C537.151 141.232 538.987 147.556 538.987 153.2C538.987 158.844 537.151 165.168 533.139 169.86C529.127 174.552 523.007 177.952 516.139 177.952C509.271 177.952 503.151 174.552 499.139 169.86C495.127 165.168 493.291 158.844 493.291 153.2ZM499.547 153.2C499.547 158.436 500.703 164.556 503.559 168.84C506.823 173.736 511.787 175.912 516.139 175.912C520.491 175.912 525.455 173.736 528.719 168.84C531.575 164.556 532.731 158.436 532.731 153.2C532.731 148.032 531.575 141.844 528.719 137.56C525.455 132.664 520.491 130.488 516.139 130.488C511.787 130.488 506.823 132.664 503.559 137.56C500.703 141.844 499.547 148.032 499.547 153.2ZM546.466 129.4H593.25V130.352C588.082 130.896 588.082 135.248 588.082 137.152V169.656C588.082 171.492 588.15 175.504 593.25 176.048V177H577.746V176.048C582.846 175.504 582.914 171.492 582.914 169.656V135.86C582.914 133.752 582.37 131.44 577.202 131.44H562.514C557.346 131.44 556.802 133.752 556.802 135.86V169.656C556.802 171.492 556.87 175.504 561.97 176.048V177H546.466V176.048C551.566 175.504 551.634 171.492 551.634 169.656V137.152C551.634 135.452 551.634 130.896 546.466 130.352V129.4ZM600.124 129.4H615.628V130.352C610.596 130.896 610.46 134.704 610.46 137.152V148.78C612.636 148.304 616.104 147.896 619.028 147.896C625.284 147.896 629.432 149.596 632.356 151.704C636.368 154.628 638.34 158.64 638.34 163.74C638.34 169.112 635.484 172.308 634.26 173.328C631.88 175.504 628.004 177 623.652 177H600.056V176.048C605.224 175.504 605.292 171.628 605.292 169.656V137.152C605.292 134.704 605.156 130.896 600.124 130.352V129.4ZM610.46 150.684V170.132C610.46 175.096 612.84 174.96 617.94 174.96C622.02 174.96 625.352 174.416 628.276 171.696C630.452 169.724 632.084 166.732 632.084 163.4C632.084 155.036 624.604 149.936 616.308 149.936C614.336 149.936 612.432 150.14 610.46 150.684ZM640.312 129.4H655.816V130.352C650.784 130.896 650.648 134.704 650.648 137.152V169.248C650.648 171.696 650.784 175.504 655.816 176.048V177H640.312V176.048C645.344 175.504 645.48 171.696 645.48 169.248V137.152C645.48 134.704 645.344 130.896 640.312 130.352V129.4ZM662.611 129.4H695.387L697.427 138.512H696.339C694.367 134.976 690.695 131.44 685.391 131.44C681.651 131.44 681.583 133.82 681.583 135.724V169.248C681.583 171.696 681.719 175.504 686.751 176.048V177H671.247V176.048C676.279 175.504 676.415 171.696 676.415 169.248V135.724C676.415 134.092 676.347 131.44 672.607 131.44C667.303 131.44 663.495 134.84 661.659 138.512H660.571L662.611 129.4Z" fill="#0A2339"/>
</g>
<defs>
<filter id="filter0_d_350_446" x="0" y="0" width="1188" height="1958" filterUnits="userSpaceOnUse" color-interpolation-filters="sRGB">
<feFlood flood-opacity="0" result="BackgroundImageFix"/>
<feColorMatrix in="SourceAlpha" type="matrix" values="0 0 0 0 0 0 0 0 0 0 0 0 0 0 0 0 0 0 127 0" result="hardAlpha"/>
<feMorphology radius="18" operator="dilate" in="SourceAlpha" result="effect1_dropShadow_350_446"/>
<feOffset dy="4"/>
<feGaussianBlur stdDeviation="13"/>
<feComposite in2="hardAlpha" operator="out"/>
<feColorMatrix type="matrix" values="0 0 0 0 0 0 0 0 0 0 0 0 0 0 0 0 0 0 0.05 0"/>
<feBlend mode="normal" in2="BackgroundImageFix" result="effect1_dropShadow_350_446"/>
<feBlend mode="normal" in="SourceGraphic" in2="effect1_dropShadow_350_446" result="shape"/>
</filter>
<linearGradient id="paint0_linear_350_446" x1="1144" y1="975" x2="44" y2="975" gradientUnits="userSpaceOnUse">
<stop stop-color="#A66A3F"/>
<stop offset="0.5" stop-color="#E4BCA0"/>
<stop offset="1" stop-color="#A66A3F"/>
</linearGradient>
</defs>
</svg>
