<svg width="199" height="90" viewBox="0 0 199 90" fill="none" xmlns="http://www.w3.org/2000/svg">
<g clip-path="url(#clip0_255_794)">
<path d="M103.59 35.8485H101.179V42.4825H100.191V35.8485H97.7812V35.049H103.604L103.59 35.8485Z" fill="#00684B"/>
<path d="M105.755 37.6283C105.95 37.3811 106.202 37.1825 106.489 37.0486C106.776 36.9147 107.091 36.8492 107.408 36.8574C108.588 36.8574 109.184 37.5157 109.197 38.8324V42.4825H108.233V38.8276C108.256 38.5083 108.156 38.1922 107.953 37.9424C107.84 37.8395 107.707 37.761 107.562 37.7118C107.416 37.6627 107.262 37.644 107.109 37.6569C106.817 37.651 106.529 37.7377 106.29 37.9044C106.055 38.0687 105.868 38.29 105.745 38.5468V42.4825H104.781V34.6302H105.745L105.755 37.6283Z" fill="#00684B"/>
<path d="M113.127 42.5824C112.783 42.5953 112.441 42.5362 112.122 42.4091C111.803 42.282 111.514 42.0897 111.276 41.8448C111.03 41.5779 110.841 41.2655 110.718 40.9256C110.596 40.5858 110.543 40.2252 110.563 39.865V39.689C110.553 39.1827 110.662 38.6812 110.881 38.2232C111.075 37.8115 111.382 37.4619 111.768 37.2143C112.134 36.9728 112.566 36.8452 113.007 36.8479C113.325 36.8307 113.644 36.8857 113.938 37.0085C114.232 37.1314 114.494 37.319 114.703 37.5569C115.144 38.1415 115.359 38.8619 115.311 39.589V39.9793H111.517C111.508 40.4636 111.68 40.9343 111.999 41.3023C112.149 41.4605 112.331 41.585 112.534 41.6671C112.737 41.7493 112.956 41.7871 113.175 41.7782C113.474 41.7871 113.77 41.7182 114.033 41.5783C114.271 41.4371 114.481 41.2531 114.65 41.0358L115.233 41.4831C115.014 41.8356 114.703 42.1235 114.332 42.3169C113.962 42.5103 113.546 42.602 113.127 42.5824ZM113.007 37.6331C112.825 37.6303 112.645 37.6658 112.479 37.7372C112.313 37.8086 112.164 37.9143 112.042 38.0471C111.76 38.375 111.591 38.7836 111.56 39.2131H114.361V39.1417C114.362 38.7377 114.224 38.3453 113.971 38.0281C113.85 37.8956 113.7 37.7915 113.534 37.7231C113.367 37.6548 113.187 37.624 113.007 37.6331Z" fill="#00684B"/>
<path d="M119.613 42.4825V35.049H122.076C122.73 35.0018 123.38 35.1783 123.918 35.5487C124.127 35.7292 124.293 35.9547 124.4 36.2079C124.508 36.4612 124.556 36.7355 124.54 37.0097C124.556 37.3502 124.454 37.6859 124.25 37.9615C124.04 38.2367 123.759 38.4505 123.436 38.5802C123.821 38.6809 124.161 38.9073 124.4 39.2226C124.631 39.5497 124.748 39.9424 124.732 40.341C124.748 40.6351 124.698 40.9291 124.584 41.2016C124.471 41.474 124.298 41.7181 124.077 41.9162C123.551 42.3259 122.89 42.5292 122.221 42.4873L119.613 42.4825ZM120.606 38.1994H122.105C122.48 38.2192 122.849 38.1061 123.146 37.8806C123.275 37.7736 123.377 37.6391 123.444 37.4873C123.512 37.3356 123.544 37.1706 123.537 37.0049C123.552 36.8383 123.527 36.6704 123.464 36.515C123.402 36.3596 123.303 36.2209 123.175 36.1103C122.85 35.9003 122.464 35.8017 122.076 35.8295H120.606V38.1994ZM120.606 38.9847V41.664H122.245C122.643 41.6866 123.034 41.559 123.339 41.3071C123.471 41.1861 123.575 41.0385 123.644 40.8742C123.714 40.71 123.746 40.533 123.739 40.3553C123.739 39.4558 123.257 39.0085 122.264 39.0085L120.606 38.9847Z" fill="#00684B"/>
<path d="M129.701 41.9352C129.494 42.1581 129.238 42.332 128.954 42.4441C128.669 42.5561 128.363 42.6034 128.057 42.5825C127.807 42.5987 127.556 42.5617 127.321 42.4738C127.087 42.386 126.874 42.2494 126.698 42.0732C126.351 41.6441 126.179 41.1028 126.216 40.5551V36.9573H127.18V40.5266C127.18 41.3642 127.527 41.7829 128.216 41.7829C128.512 41.8117 128.809 41.7499 129.068 41.606C129.326 41.4621 129.534 41.2431 129.662 40.9787V36.9573H130.626V42.4825H129.715L129.701 41.9352Z" fill="#00684B"/>
<path d="M135.469 41.0167C135.474 40.9013 135.449 40.7866 135.398 40.6828C135.347 40.579 135.27 40.4893 135.175 40.4219C134.863 40.236 134.518 40.1116 134.158 40.0554C133.758 39.9829 133.369 39.8597 133.001 39.689C132.753 39.574 132.537 39.3988 132.375 39.1798C132.233 38.972 132.161 38.7258 132.168 38.4754C132.167 38.2518 132.219 38.031 132.32 37.831C132.422 37.631 132.569 37.4572 132.751 37.3238C133.174 36.998 133.699 36.8295 134.235 36.8479C134.791 36.8192 135.338 36.988 135.778 37.3238C135.967 37.4708 136.119 37.659 136.222 37.8737C136.324 38.0884 136.375 38.3237 136.371 38.5611H135.407C135.406 38.4324 135.376 38.3055 135.318 38.1901C135.261 38.0746 135.177 37.9737 135.074 37.8948C134.836 37.7044 134.537 37.6048 134.231 37.6141C133.941 37.5978 133.655 37.6764 133.416 37.8377C133.323 37.9049 133.248 37.9931 133.197 38.095C133.145 38.1969 133.12 38.3094 133.122 38.4231C133.115 38.5298 133.138 38.6364 133.188 38.7312C133.238 38.826 133.314 38.9054 133.406 38.9609C133.719 39.1195 134.054 39.2318 134.399 39.294C134.8 39.373 135.19 39.4993 135.561 39.6699C135.821 39.7885 136.047 39.9703 136.217 40.1982C136.366 40.4205 136.442 40.6833 136.433 40.9501C136.439 41.1814 136.387 41.4105 136.283 41.6178C136.179 41.825 136.026 42.0042 135.836 42.1399C135.38 42.4515 134.833 42.607 134.279 42.5824C133.869 42.5914 133.463 42.5118 133.088 42.3492C132.762 42.2083 132.482 41.981 132.278 41.6925C132.089 41.4261 131.986 41.109 131.984 40.7835H132.948C132.95 40.9297 132.985 41.0735 133.052 41.2039C133.119 41.3343 133.216 41.4478 133.334 41.5355C133.613 41.7352 133.954 41.8328 134.298 41.8115C134.602 41.8263 134.904 41.7517 135.166 41.5973C135.262 41.5341 135.341 41.4476 135.394 41.346C135.447 41.2444 135.473 41.131 135.469 41.0167Z" fill="#00684B"/>
<path d="M137.789 35.4916C137.786 35.3495 137.837 35.2114 137.934 35.1061C138.051 35.0053 138.201 34.9498 138.356 34.9498C138.511 34.9498 138.661 35.0053 138.778 35.1061C138.874 35.2114 138.926 35.3495 138.922 35.4916C138.927 35.6338 138.875 35.7723 138.778 35.8771C138.659 35.9751 138.51 36.0288 138.356 36.0288C138.201 36.0288 138.052 35.9751 137.934 35.8771C137.836 35.7723 137.784 35.6338 137.789 35.4916ZM138.826 42.4825H137.862V36.9573H138.826V42.4825Z" fill="#00684B"/>
<path d="M141.409 36.9573L141.443 37.6521C141.638 37.3982 141.891 37.1936 142.182 37.0554C142.473 36.9172 142.793 36.8493 143.115 36.8574C144.295 36.8574 144.891 37.5157 144.904 38.8324V42.4825H143.94V38.8276C143.963 38.5083 143.863 38.1922 143.66 37.9424C143.547 37.8395 143.414 37.761 143.269 37.7118C143.123 37.6627 142.969 37.644 142.816 37.6569C142.525 37.6504 142.239 37.7372 142.002 37.9044C141.765 38.0671 141.575 38.2887 141.452 38.5468V42.4825H140.488V36.9573H141.409Z" fill="#00684B"/>
<path d="M148.833 42.5824C148.489 42.5953 148.146 42.5362 147.827 42.4091C147.508 42.282 147.22 42.0897 146.982 41.8448C146.738 41.5772 146.55 41.2644 146.429 40.9245C146.308 40.5847 146.257 40.2246 146.278 39.865V39.689C146.269 39.1827 146.378 38.6812 146.596 38.2232C146.79 37.8115 147.098 37.4619 147.483 37.2143C147.85 36.9728 148.281 36.8452 148.722 36.8479C149.041 36.8307 149.359 36.8857 149.653 37.0085C149.947 37.1314 150.209 37.319 150.419 37.5569C150.859 38.1415 151.075 38.8619 151.026 39.589V39.9793H147.232C147.224 40.4636 147.395 40.9343 147.714 41.3023C147.864 41.4605 148.047 41.585 148.25 41.6671C148.453 41.7493 148.671 41.7871 148.891 41.7782C149.189 41.7871 149.485 41.7182 149.749 41.5783C149.985 41.437 150.193 41.2529 150.361 41.0358L150.949 41.4831C150.728 41.8367 150.415 42.1253 150.043 42.3187C149.671 42.5121 149.253 42.6032 148.833 42.5824ZM148.712 37.6331C148.531 37.6303 148.351 37.6658 148.185 37.7372C148.019 37.8086 147.87 37.9143 147.748 38.0471C147.466 38.375 147.297 38.7836 147.266 39.2131H150.067V39.1417C150.067 38.7377 149.93 38.3453 149.676 38.0281C149.557 37.8969 149.409 37.7935 149.244 37.7252C149.079 37.6569 148.901 37.6255 148.722 37.6331H148.712Z" fill="#00684B"/>
<path d="M155.528 41.0167C155.533 40.9018 155.509 40.7873 155.459 40.6835C155.408 40.5798 155.333 40.4899 155.239 40.4219C154.925 40.2362 154.578 40.1118 154.217 40.0554C153.818 39.9822 153.431 39.8591 153.065 39.689C152.815 39.5728 152.598 39.3979 152.433 39.1798C152.295 38.9705 152.225 38.725 152.231 38.4755C152.23 38.2518 152.282 38.0311 152.383 37.831C152.485 37.631 152.632 37.4572 152.814 37.3238C153.237 36.998 153.762 36.8295 154.299 36.8479C154.854 36.82 155.401 36.9888 155.841 37.3238C156.03 37.4708 156.182 37.659 156.285 37.8737C156.388 38.0884 156.439 38.3237 156.434 38.5611H155.47C155.468 38.4321 155.437 38.3051 155.379 38.1896C155.32 38.0742 155.236 37.9734 155.132 37.8949C154.897 37.7036 154.599 37.6038 154.294 37.6141C154.005 37.5978 153.718 37.6764 153.479 37.8377C153.382 37.905 153.303 37.9949 153.249 38.0994C153.195 38.204 153.168 38.3201 153.171 38.4374C153.166 38.5401 153.189 38.6423 153.237 38.7334C153.285 38.8246 153.357 38.9014 153.445 38.9561C153.758 39.1148 154.093 39.227 154.438 39.2892C154.839 39.3683 155.229 39.4945 155.6 39.6652C155.86 39.7838 156.086 39.9655 156.256 40.1934C156.405 40.4158 156.481 40.6786 156.472 40.9454C156.477 41.1771 156.425 41.4065 156.32 41.6137C156.215 41.821 156.061 42 155.87 42.1351C155.414 42.4474 154.867 42.603 154.313 42.5777C153.905 42.5866 153.5 42.507 153.127 42.3445C152.801 42.2036 152.521 41.9763 152.317 41.6878C152.126 41.4225 152.023 41.1047 152.023 40.7788H152.987C152.989 40.9249 153.025 41.0688 153.091 41.1992C153.158 41.3296 153.255 41.443 153.373 41.5307C153.652 41.7308 153.993 41.8284 154.337 41.8067C154.643 41.8222 154.947 41.7476 155.21 41.5926C155.308 41.5318 155.39 41.4469 155.445 41.346C155.501 41.2451 155.53 41.1317 155.528 41.0167Z" fill="#00684B"/>
<path d="M161.139 41.0167C161.145 40.9012 161.121 40.7862 161.069 40.6822C161.018 40.5783 160.941 40.4888 160.845 40.4219C160.533 40.236 160.188 40.1116 159.828 40.0554C159.43 39.983 159.042 39.8598 158.676 39.689C158.426 39.5741 158.209 39.399 158.045 39.1798C157.903 38.972 157.831 38.7258 157.837 38.4755C157.836 38.2518 157.889 38.0311 157.99 37.831C158.091 37.631 158.239 37.4572 158.421 37.3238C158.844 36.998 159.369 36.8295 159.905 36.8479C160.462 36.8197 161.01 36.9885 161.452 37.3238C161.64 37.4718 161.79 37.6603 161.892 37.8748C161.994 38.0894 162.045 38.3242 162.041 38.5611H161.077C161.076 38.4324 161.046 38.3055 160.988 38.1901C160.931 38.0746 160.847 37.9737 160.744 37.8949C160.507 37.7029 160.207 37.603 159.9 37.6141C159.611 37.5985 159.325 37.6771 159.086 37.8377C158.993 37.9049 158.918 37.9931 158.866 38.095C158.815 38.1969 158.79 38.3094 158.792 38.4231C158.787 38.5258 158.81 38.628 158.858 38.7192C158.906 38.8103 158.978 38.8871 159.066 38.9418C159.377 39.1007 159.71 39.213 160.055 39.275C160.456 39.354 160.846 39.4802 161.216 39.6509C161.477 39.7707 161.704 39.9522 161.877 40.1792C162.023 40.4029 162.097 40.6651 162.089 40.9311C162.094 41.1624 162.043 41.3915 161.939 41.5988C161.834 41.806 161.681 41.9852 161.491 42.1208C161.035 42.4325 160.488 42.588 159.934 42.5634C159.525 42.5718 159.119 42.4922 158.744 42.3302C158.419 42.1872 158.139 41.9604 157.934 41.6735C157.746 41.4067 157.645 41.0895 157.645 40.7645H158.609C158.612 40.9103 158.649 41.0534 158.715 41.1835C158.782 41.3136 158.877 41.4273 158.994 41.5164C159.274 41.7154 159.614 41.813 159.958 41.7925C160.264 41.8065 160.567 41.7321 160.831 41.5783C160.925 41.5171 161.003 41.4338 161.056 41.3358C161.11 41.2378 161.139 41.1282 161.139 41.0167Z" fill="#00684B"/>
<path d="M168.753 39.1703C168.073 39.0136 167.438 38.7096 166.892 38.2803C166.705 38.1163 166.557 37.9145 166.456 37.6887C166.355 37.4629 166.305 37.2183 166.309 36.9716C166.31 36.6957 166.375 36.4237 166.498 36.1763C166.622 35.9289 166.801 35.7126 167.022 35.5439C167.551 35.1453 168.204 34.9431 168.868 34.9728C169.347 34.9624 169.821 35.0635 170.252 35.2679C170.645 35.4425 170.98 35.725 171.216 36.0817C171.436 36.4228 171.551 36.8194 171.548 37.2238H170.522C170.533 37.0257 170.499 36.8276 170.424 36.6434C170.349 36.4593 170.235 36.2935 170.088 36.1578C169.742 35.8816 169.303 35.744 168.859 35.7723C168.452 35.7479 168.05 35.8603 167.716 36.0912C167.581 36.1965 167.473 36.3322 167.402 36.4871C167.331 36.6419 167.298 36.8113 167.307 36.9811C167.307 37.1301 167.342 37.277 167.41 37.4101C167.477 37.5432 167.576 37.6587 167.697 37.7473C168.097 38.0224 168.547 38.218 169.023 38.3232C169.527 38.4545 170.013 38.648 170.469 38.899C170.788 39.0752 171.058 39.3271 171.254 39.6319C171.429 39.9313 171.517 40.2718 171.51 40.617C171.516 40.894 171.454 41.1683 171.33 41.4168C171.206 41.6653 171.023 41.8806 170.797 42.0447C170.234 42.4344 169.555 42.6256 168.868 42.5872C168.371 42.5917 167.878 42.4928 167.422 42.2969C167.009 42.1278 166.65 41.8496 166.386 41.4926C166.142 41.1538 166.014 40.7471 166.02 40.3314H167.018C167.009 40.5362 167.051 40.7398 167.139 40.9253C167.227 41.1108 167.359 41.2727 167.524 41.3975C167.914 41.6753 168.388 41.813 168.868 41.7877C169.295 41.8162 169.719 41.704 170.074 41.4688C170.201 41.3668 170.305 41.2383 170.377 41.0925C170.45 40.9467 170.489 40.787 170.492 40.6247C170.495 40.4624 170.462 40.3014 170.396 40.1529C170.329 40.0044 170.231 39.8721 170.107 39.7651C169.692 39.4942 169.234 39.2932 168.753 39.1703Z" fill="#00684B"/>
<path d="M175.185 41.8115C175.509 41.8188 175.826 41.7107 176.076 41.5069C176.198 41.4162 176.299 41.301 176.372 41.1689C176.445 41.0368 176.489 40.8908 176.501 40.7407H177.407C177.388 41.0671 177.275 41.3812 177.079 41.6449C176.867 41.9348 176.588 42.1699 176.264 42.3302C175.93 42.4985 175.56 42.585 175.185 42.5825C174.844 42.5983 174.505 42.539 174.19 42.4089C173.876 42.2788 173.595 42.0813 173.368 41.8305C172.889 41.2513 172.648 40.516 172.693 39.7699V39.6129C172.684 39.121 172.786 38.6334 172.992 38.1852C173.178 37.7912 173.478 37.4602 173.854 37.2334C174.253 36.9933 174.713 36.8726 175.18 36.886C175.754 36.8668 176.313 37.0662 176.742 37.4428C176.945 37.6238 177.108 37.8438 177.223 38.0892C177.337 38.3346 177.4 38.6004 177.407 38.8705H176.501C176.485 38.5357 176.338 38.2201 176.091 37.99C175.845 37.7614 175.518 37.6382 175.18 37.6474C174.963 37.6366 174.746 37.6782 174.549 37.7685C174.351 37.8589 174.179 37.9954 174.047 38.1661C173.752 38.6095 173.612 39.1358 173.647 39.6652V39.8413C173.614 40.3615 173.754 40.8781 174.047 41.3118C174.182 41.4792 174.356 41.6119 174.554 41.6989C174.752 41.7859 174.968 41.8245 175.185 41.8115Z" fill="#00684B"/>
<path d="M179.683 37.6283C179.878 37.3811 180.129 37.1825 180.417 37.0486C180.704 36.9147 181.019 36.8492 181.336 36.8574C182.515 36.8574 183.112 37.5157 183.124 38.8324V42.4825H182.16V38.8276C182.183 38.5083 182.084 38.1922 181.881 37.9424C181.768 37.8395 181.635 37.761 181.49 37.7118C181.344 37.6627 181.19 37.644 181.037 37.6569C180.744 37.6503 180.457 37.7371 180.218 37.9044C179.987 38.0699 179.803 38.2911 179.683 38.5468V42.4825H178.719V34.6302H179.683V37.6283Z" fill="#00684B"/>
<path d="M184.45 39.67C184.441 39.1648 184.551 38.6645 184.773 38.209C184.97 37.7976 185.283 37.4507 185.674 37.2096C186.069 36.9696 186.526 36.8473 186.99 36.8574C187.338 36.8445 187.684 36.9078 188.004 37.0428C188.324 37.1777 188.61 37.381 188.841 37.6379C189.335 38.2178 189.588 38.9608 189.549 39.7176V39.7842C189.553 40.2771 189.446 40.7647 189.236 41.2119C189.053 41.6337 188.748 41.9929 188.359 42.2446C187.957 42.4865 187.494 42.6104 187.024 42.6015C186.677 42.6143 186.333 42.5509 186.014 42.4159C185.696 42.2809 185.412 42.0777 185.182 41.821C184.69 41.246 184.437 40.5078 184.474 39.7556L184.45 39.67ZM185.414 39.7842C185.388 40.3092 185.539 40.828 185.843 41.2595C185.977 41.4364 186.151 41.5789 186.353 41.675C186.554 41.7711 186.776 41.8179 187 41.8115C187.224 41.8193 187.448 41.7721 187.649 41.6742C187.851 41.5762 188.025 41.4305 188.156 41.2499C188.47 40.7836 188.621 40.2287 188.585 39.67C188.61 39.1444 188.457 38.6256 188.152 38.1947C188.018 38.0153 187.843 37.8705 187.641 37.7727C187.438 37.6749 187.215 37.627 186.99 37.6331C186.768 37.628 186.548 37.6759 186.349 37.7729C186.151 37.8698 185.978 38.0129 185.848 38.1899C185.529 38.6596 185.376 39.2201 185.414 39.7842Z" fill="#00684B"/>
<path d="M190.672 39.67C190.663 39.1648 190.773 38.6645 190.995 38.209C191.191 37.7982 191.502 37.4514 191.891 37.2096C192.286 36.9696 192.743 36.8473 193.207 36.8574C193.555 36.8455 193.901 36.9093 194.221 37.0442C194.541 37.1791 194.827 37.3817 195.058 37.6379C195.551 38.2183 195.802 38.9614 195.762 39.7176V39.7842C195.769 40.2774 195.662 40.7657 195.449 41.2119C195.259 41.6343 194.949 41.9931 194.557 42.2446C194.155 42.4858 193.692 42.6096 193.222 42.6015C192.875 42.6143 192.529 42.551 192.21 42.416C191.891 42.2811 191.606 42.0779 191.376 41.821C190.885 41.2453 190.633 40.5072 190.672 39.7556V39.67ZM191.636 39.7842C191.611 40.3098 191.764 40.8286 192.07 41.2595C192.204 41.4368 192.379 41.5807 192.58 41.6798C192.781 41.7789 193.002 41.8306 193.227 41.8306C193.451 41.8306 193.672 41.7789 193.873 41.6798C194.074 41.5807 194.249 41.4368 194.383 41.2595C194.695 40.7921 194.845 40.238 194.812 39.6795C194.838 39.1531 194.683 38.6335 194.374 38.2042C194.239 38.0287 194.065 37.8864 193.865 37.7884C193.665 37.6904 193.445 37.6394 193.222 37.6394C192.999 37.6394 192.778 37.6904 192.579 37.7884C192.379 37.8864 192.205 38.0287 192.07 38.2042C191.752 38.6694 191.598 39.2244 191.631 39.7842H191.636Z" fill="#00684B"/>
<path d="M198.148 42.4825H197.184V34.6302H198.148V42.4825Z" fill="#00684B"/>
<path d="M100.399 55.0272V50.2349H99.5117V49.5068H100.399V48.9405C100.382 48.6911 100.416 48.4409 100.499 48.2047C100.582 47.9685 100.712 47.7511 100.881 47.5651C101.062 47.3979 101.276 47.2694 101.51 47.1875C101.744 47.1056 101.992 47.0722 102.24 47.0892C102.461 47.0896 102.682 47.1184 102.895 47.1749L102.842 47.9363C102.672 47.9053 102.5 47.8893 102.327 47.8887C102.194 47.8808 102.062 47.9009 101.938 47.9477C101.814 47.9945 101.702 48.0668 101.609 48.16C101.427 48.3754 101.336 48.6512 101.353 48.9309V49.5163H102.558V50.2444H101.353V55.0367L100.399 55.0272Z" fill="#00684B"/>
<path d="M103.343 52.2384C103.337 51.7335 103.448 51.2339 103.666 50.7774C103.863 50.3638 104.177 50.0156 104.571 49.7756C104.965 49.5356 105.421 49.414 105.883 49.4258C106.23 49.4137 106.576 49.4773 106.895 49.6122C107.214 49.7472 107.499 49.95 107.73 50.2063C108.223 50.7865 108.476 51.5293 108.438 52.286V52.3526C108.442 52.8455 108.335 53.3332 108.125 53.7803C107.932 54.193 107.62 54.5406 107.228 54.7797C106.827 55.0221 106.364 55.146 105.893 55.1366C105.547 55.1484 105.202 55.0846 104.884 54.9496C104.566 54.8147 104.282 54.6121 104.052 54.3561C103.56 53.7787 103.307 53.0395 103.343 52.286V52.2384ZM104.307 52.3526C104.281 52.8777 104.432 53.3964 104.736 53.8279C104.869 54.006 105.044 54.1497 105.245 54.2467C105.447 54.3436 105.669 54.391 105.893 54.3847C106.118 54.3916 106.342 54.3435 106.543 54.2447C106.745 54.1459 106.919 53.9995 107.05 53.8184C107.364 53.3524 107.515 52.7972 107.479 52.2384C107.502 51.7144 107.35 51.1975 107.045 50.7679C106.912 50.5879 106.737 50.4424 106.535 50.3438C106.332 50.2452 106.109 50.1964 105.883 50.2016C105.662 50.1964 105.442 50.2443 105.243 50.3413C105.044 50.4383 104.872 50.5814 104.741 50.7584C104.428 51.2217 104.276 51.7728 104.307 52.3288V52.3526Z" fill="#00684B"/>
<path d="M112.516 50.3348C112.357 50.3089 112.196 50.2961 112.034 50.2968C111.764 50.2762 111.494 50.3418 111.264 50.484C111.034 50.6262 110.856 50.8375 110.757 51.0868V55.0081H109.793V49.4877H110.752V50.1254C110.886 49.8942 111.081 49.7031 111.316 49.5724C111.551 49.4417 111.818 49.3762 112.087 49.383C112.232 49.375 112.377 49.3994 112.512 49.4544L112.516 50.3348Z" fill="#00684B"/>
<path d="M117.737 48.1695V49.5068H118.783V50.2349H117.737V53.6661C117.729 53.8357 117.778 54.003 117.877 54.142C117.939 54.2038 118.015 54.2508 118.099 54.2797C118.182 54.3085 118.271 54.3184 118.359 54.3086C118.512 54.3039 118.664 54.2831 118.812 54.2467V55.0082C118.574 55.0768 118.327 55.1121 118.079 55.1128C117.899 55.1255 117.719 55.0974 117.552 55.0305C117.385 54.9637 117.236 54.86 117.115 54.7274C116.878 54.4159 116.762 54.031 116.788 53.6423V50.2159H115.766V49.4877H116.783V48.1695H117.737Z" fill="#00684B"/>
<path d="M121.278 50.173C121.474 49.9258 121.725 49.7272 122.012 49.5933C122.299 49.4594 122.614 49.3939 122.932 49.4021C124.113 49.4021 124.71 50.0636 124.72 51.3771V55.0272H123.756V51.3723C123.777 51.0554 123.679 50.7419 123.481 50.4919C123.368 50.3889 123.233 50.3103 123.087 50.2611C122.941 50.212 122.787 50.1933 122.633 50.2063C122.342 50.2004 122.057 50.2854 121.818 50.449C121.581 50.6118 121.392 50.8334 121.269 51.0915V55.0272H120.305V47.1891H121.269L121.278 50.173Z" fill="#00684B"/>
<path d="M128.653 55.1319C128.31 55.1438 127.967 55.0844 127.648 54.9573C127.33 54.8302 127.041 54.6384 126.802 54.3942C126.311 53.8542 126.054 53.1446 126.089 52.4192V52.2384C126.08 51.7307 126.189 51.2277 126.407 50.7679C126.604 50.3566 126.913 50.0074 127.299 49.759C127.666 49.5191 128.097 49.3916 128.538 49.3925C128.856 49.3754 129.174 49.4304 129.467 49.5533C129.76 49.6762 130.021 49.8638 130.23 50.1016C130.67 50.6863 130.885 51.4066 130.837 52.1337V52.5287H127.048C127.039 53.0117 127.211 53.4812 127.53 53.8469C127.677 54.0111 127.858 54.1415 128.061 54.2287C128.265 54.3159 128.485 54.3578 128.706 54.3514C129.001 54.3572 129.293 54.2849 129.55 54.142C129.788 54.0008 129.997 53.8168 130.167 53.5995L130.75 54.0754C130.525 54.4178 130.213 54.6957 129.845 54.8812C129.477 55.0667 129.066 55.1531 128.653 55.1319ZM128.538 50.1778C128.356 50.1753 128.176 50.2114 128.01 50.2836C127.843 50.3559 127.695 50.4626 127.574 50.5966C127.292 50.925 127.123 51.3333 127.092 51.7625H129.897V51.6911C129.896 51.2851 129.757 50.8912 129.502 50.5728C129.381 50.4398 129.232 50.3352 129.065 50.2669C128.898 50.1985 128.718 50.168 128.538 50.1778Z" fill="#00684B"/>
<path d="M136.781 52.6857L136.926 53.6661L137.138 52.7809L138.627 47.5936H139.466L140.912 52.7809L141.119 53.6661L141.283 52.6667L142.45 47.5793H143.447L141.601 55.0272H140.7L139.148 49.6114L139.027 49.0451L138.911 49.6114L137.302 55.0272H136.395L134.578 47.5936H135.571L136.781 52.6857Z" fill="#00684B"/>
<path d="M144.039 52.2384C144.033 51.7335 144.143 51.2339 144.361 50.7774C144.558 50.3638 144.872 50.0156 145.266 49.7756C145.66 49.5356 146.116 49.414 146.579 49.4258C146.926 49.4137 147.271 49.4773 147.59 49.6122C147.909 49.7472 148.194 49.95 148.425 50.2063C148.918 50.7865 149.171 51.5293 149.133 52.286V52.3526C149.137 52.8455 149.03 53.3332 148.82 53.7803C148.627 54.193 148.315 54.5406 147.924 54.7797C147.522 55.0221 147.059 55.146 146.588 55.1366C146.242 55.1484 145.898 55.0846 145.579 54.9496C145.261 54.8147 144.977 54.6121 144.747 54.3561C144.256 53.7787 144.003 53.0395 144.039 52.286V52.2384ZM145.003 52.3526C144.977 52.8777 145.127 53.3964 145.432 53.8279C145.565 54.006 145.739 54.1497 145.941 54.2467C146.142 54.3436 146.364 54.391 146.588 54.3847C146.814 54.3916 147.037 54.3435 147.239 54.2447C147.441 54.1459 147.615 53.9995 147.745 53.8184C148.06 53.3524 148.21 52.7972 148.174 52.2384C148.198 51.7144 148.045 51.1975 147.74 50.7679C147.607 50.5879 147.432 50.4424 147.23 50.3438C147.028 50.2452 146.804 50.1964 146.579 50.2016C146.357 50.1964 146.137 50.2443 145.938 50.3413C145.739 50.4383 145.567 50.5814 145.436 50.7584C145.124 51.2217 144.971 51.7728 145.003 52.3288V52.3526Z" fill="#00684B"/>
<path d="M153.212 50.3348C153.052 50.3086 152.891 50.2958 152.73 50.2968C152.459 50.2746 152.188 50.3396 151.958 50.482C151.728 50.6244 151.55 50.8366 151.452 51.0868V55.0081H150.488V49.4877H151.419V50.1254C151.553 49.8942 151.747 49.7031 151.982 49.5724C152.218 49.4417 152.484 49.3762 152.754 49.383C152.899 49.375 153.044 49.3994 153.178 49.4544L153.212 50.3348Z" fill="#00684B"/>
<path d="M155.3 55.0272H154.336V47.1891H155.3V55.0272Z" fill="#00684B"/>
<path d="M156.75 52.2384C156.713 51.5089 156.929 50.7887 157.362 50.1968C157.548 49.9642 157.783 49.7744 158.051 49.6404C158.319 49.5065 158.613 49.4318 158.913 49.4213C159.213 49.4109 159.512 49.4651 159.788 49.5801C160.065 49.6951 160.313 49.8682 160.515 50.0874V47.232H161.479V55.07H160.592L160.549 54.4799C160.355 54.7103 160.109 54.893 159.831 55.0136C159.554 55.1341 159.251 55.1893 158.948 55.1747C158.64 55.1788 158.334 55.1095 158.058 54.9729C157.782 54.8362 157.544 54.6362 157.362 54.3895C156.935 53.7895 156.719 53.0668 156.75 52.3336V52.2384ZM157.714 52.3479C157.685 52.8664 157.822 53.3808 158.105 53.8184C158.227 53.9884 158.39 54.1257 158.579 54.2179C158.769 54.3101 158.978 54.3543 159.189 54.3467C159.467 54.359 159.742 54.289 159.979 54.1456C160.216 54.0023 160.404 53.7922 160.52 53.5424V51.0059C160.401 50.7632 160.214 50.56 159.98 50.4213C159.746 50.2826 159.476 50.2145 159.204 50.2254C158.99 50.2158 158.777 50.2596 158.585 50.3528C158.393 50.446 158.228 50.5855 158.105 50.7584C157.815 51.2302 157.677 51.7779 157.709 52.3289L157.714 52.3479Z" fill="#00684B"/>
<path d="M163.262 49.3069C163.259 48.951 163.348 48.6003 163.522 48.2884C163.692 47.9788 163.946 47.7218 164.255 47.546C164.551 47.3688 164.891 47.2751 165.238 47.2751C165.585 47.2751 165.925 47.3688 166.221 47.546C166.523 47.7246 166.77 47.9813 166.935 48.2884C167.104 48.6028 167.193 48.9533 167.193 49.3093C167.193 49.6652 167.104 50.0157 166.935 50.3301C166.768 50.6356 166.522 50.8919 166.221 51.0725C165.93 51.245 165.597 51.3371 165.257 51.339C164.917 51.3381 164.583 51.2442 164.293 51.0677C163.991 50.8892 163.745 50.6324 163.58 50.3253C163.386 50.0187 163.277 49.6678 163.262 49.3069ZM163.599 49.3069C163.597 49.5972 163.668 49.8835 163.806 50.1397C163.938 50.3973 164.138 50.6145 164.385 50.7679C164.635 50.9208 164.924 51.0015 165.219 51.0011C165.511 51.004 165.797 50.9229 166.043 50.7679C166.29 50.6152 166.492 50.3999 166.626 50.1445C166.762 49.8857 166.833 49.5984 166.833 49.3069C166.833 49.0153 166.762 48.7281 166.626 48.4693C166.493 48.2129 166.291 47.9973 166.043 47.8459C165.797 47.6965 165.513 47.6174 165.224 47.6174C164.934 47.6174 164.651 47.6965 164.404 47.8459C164.156 47.9947 163.953 48.2068 163.816 48.4598C163.673 48.7197 163.598 49.011 163.599 49.3069ZM164.824 49.5115V50.4252H164.404V48.1171H165.18C165.416 48.1029 165.65 48.1702 165.841 48.3075C165.917 48.3724 165.978 48.4537 166.018 48.5453C166.058 48.6368 166.077 48.7361 166.072 48.8357C166.076 48.9348 166.05 49.0328 165.998 49.1174C165.945 49.2021 165.869 49.2696 165.778 49.3116C165.88 49.3621 165.96 49.4464 166.004 49.5496C166.048 49.6702 166.069 49.7975 166.067 49.9255C166.061 50.0317 166.061 50.1382 166.067 50.2444C166.071 50.2965 166.083 50.3477 166.101 50.3967V50.4395H165.701C165.665 50.2674 165.652 50.0914 165.662 49.916C165.672 49.8089 165.641 49.702 165.575 49.6162C165.49 49.5475 165.381 49.515 165.272 49.5258L164.824 49.5115ZM164.824 49.1498H165.175C165.298 49.1552 165.419 49.1237 165.522 49.0594C165.565 49.0376 165.6 49.0048 165.625 48.9645C165.649 48.9242 165.662 48.878 165.662 48.831C165.667 48.7812 165.66 48.731 165.643 48.6841C165.625 48.6372 165.597 48.5947 165.561 48.5597C165.456 48.4957 165.332 48.4673 165.209 48.4788H164.824V49.1498Z" fill="#00684B"/>
<path d="M45.5782 89.1586C36.7321 89.1586 28.0847 86.5688 20.7294 81.7165C13.3742 76.8643 7.64144 69.9677 4.25619 61.8988C0.870942 53.8299 -0.0147943 44.951 1.71099 36.3851C3.43678 27.8192 7.69658 19.9509 13.9517 13.7752C20.2068 7.59951 28.1764 3.39381 36.8525 1.68995C45.5286 -0.0139233 54.5216 0.860564 62.6943 4.20282C70.8671 7.54508 77.8524 13.205 82.767 20.4668C87.6816 27.7287 90.3048 36.2663 90.3048 45C90.2921 56.7077 85.5757 67.9323 77.1906 76.2109C68.8055 84.4896 57.4365 89.146 45.5782 89.1586Z" fill="#00684B"/>
<path d="M52.4704 44.3337H52.0221C51.9498 44.7478 51.863 45.9042 51.1545 46.6133C50.5182 47.251 49.9928 47.3081 49.1685 47.3081H46.8693V42.3683H47.896C49.2891 42.3683 49.4819 43.3629 49.7036 44.4432H50.1037V39.9745H49.7036C49.4819 41.0881 49.3324 41.9209 47.6936 41.9209H46.8693V37.3571H49.1011C51.2171 37.3571 51.434 38.8466 51.6895 39.7746H52.133V36.8669H43.5V37.3428H45.1292V47.3081H43.5V47.784H52.4704V44.3337Z" fill="white"/>
<path d="M33.7923 47.3081C34.3949 47.3081 34.8287 48.0886 36.805 48.0886C37.3265 48.0934 37.8438 47.9953 38.3263 47.8C38.8089 47.6046 39.2471 47.3161 39.6151 46.9512C40.2787 46.3067 40.6565 45.4288 40.6659 44.5098C40.6659 40.5075 34.284 41.683 34.284 38.88C34.284 37.6379 35.3878 37.0477 36.4483 37.0477C38.0968 37.0477 38.9114 38.3755 39.191 39.7937H39.6392V36.8669H39.2151C39.162 37.2048 39.0464 37.2905 38.9018 37.2905C38.5451 37.2905 37.7979 36.5766 36.4483 36.5766C36.0243 36.5583 35.601 36.6261 35.2047 36.7758C34.8083 36.9256 34.4474 37.1541 34.1441 37.4472C33.8409 37.7404 33.6019 38.0919 33.4419 38.4799C33.2819 38.868 33.2043 39.2844 33.2139 39.7033C33.2139 42.7728 37.0701 42.5586 38.6366 43.9292C38.8364 44.1023 38.9956 44.3162 39.103 44.5563C39.2104 44.7963 39.2634 45.0565 39.2584 45.3189C39.2701 45.8475 39.0887 46.3627 38.7475 46.7703C38.5123 47.0467 38.2164 47.2666 37.8824 47.4133C37.5483 47.5601 37.1848 47.6299 36.8194 47.6174C34.6455 47.6174 33.9273 46.2897 33.4742 44.3337H32.9922V47.7983H33.4164C33.4838 47.3652 33.7056 47.3224 33.8164 47.3224" fill="white"/>
<path d="M43.9686 56.0123C44.8796 56.9212 45.0869 58.3156 45.1977 58.9866H45.7762C45.887 58.3156 46.0943 56.9212 47.0005 56.0123C47.9645 55.0319 49.1214 54.9605 50.0613 54.9605H78.2643V54.3561H50.0179C48.4996 54.3561 47.5644 54.5465 46.5377 55.5792C45.9566 56.1738 45.5818 56.9354 45.4677 57.754C45.3608 56.9343 44.9928 56.1694 44.4169 55.5697C43.3853 54.537 42.4502 54.3466 40.9367 54.3466H12.5312V54.951H40.9126C41.8766 54.951 42.9949 55.0224 43.9686 56.0027" fill="white"/>
<path d="M26.8083 37.3571H28.4182V44.6906L23.439 36.8669H20.0938V37.3571H21.6989V47.3081H20.0938V47.7983H23.8439V47.3081H22.2339V38.1613L28.4182 47.8887H28.9533V37.3571H30.5584V36.8669H26.8083V37.3571Z" fill="white"/>
<path d="M12.5312 47.3081V47.7983H17.5057V47.3081H15.8957V37.3571H17.5057V36.8669H12.5312V37.3571H14.1557V47.3081H12.5312Z" fill="white"/>
<path d="M76.5279 38.0757C75.3144 37.1968 73.8331 36.7535 72.3295 36.8193C71.4185 36.8193 70.4979 36.8669 69.5868 36.8669H67.8516V37.3428H69.4567V47.3081H67.8516V47.784H69.3458C70.9654 47.784 71.7559 47.8506 72.3825 47.8506C74.2335 47.8506 75.6121 47.5889 76.9569 46.2421C77.4653 45.7363 77.8672 45.1361 78.1394 44.4761C78.4116 43.8161 78.5486 43.1094 78.5428 42.3969C78.5695 41.5716 78.4014 40.7516 78.0517 40.0016C77.702 39.2516 77.1803 38.5922 76.5279 38.0757ZM75.2554 46.4563C74.489 47.2225 73.5298 47.4081 72.3633 47.4081C71.9439 47.4081 71.2064 47.3414 71.2064 47.3414V37.3476C71.3848 37.3476 71.8764 37.3476 72.3199 37.3476C72.9419 37.3165 73.5626 37.4295 74.1325 37.6773C74.7025 37.9252 75.2058 38.3012 75.6024 38.7753C76.3351 39.7271 76.605 41.2023 76.605 42.4873C76.5906 44.3195 75.9688 45.7139 75.2313 46.4563H75.2554Z" fill="white"/>
<path d="M64.516 47.3081L60.5682 36.6671H60.0091L56.0854 47.3081H54.7695V47.784H58.1822V47.3081H56.6639L57.8496 43.9768H61.4166L62.6216 47.3081H61.1033V47.784H65.8367V47.3081H64.516ZM58.028 43.501L59.6572 39.1465L61.2623 43.5057L58.028 43.501Z" fill="white"/>
</g>
<defs>
<clipPath id="clip0_255_794">
<rect width="199" height="90" fill="white"/>
</clipPath>
</defs>
</svg>
