<svg width="100" height="99" viewBox="0 0 100 99" fill="none" xmlns="http://www.w3.org/2000/svg">
<g clip-path="url(#clip0_255_833)">
<path d="M99.8156 49.2888C99.8133 39.5406 96.8847 30.0119 91.3992 21.9076C85.9137 13.8033 78.1178 7.4874 68.9978 3.75842C59.8774 0.0294692 49.8424 -0.945022 40.1616 0.958178C30.4806 2.86137 21.5885 7.55679 14.6096 14.4507C7.63075 21.3445 2.87858 30.1273 0.953983 39.6884C-0.970612 49.2495 0.0188272 59.1594 3.79717 68.1653C7.57552 77.1706 13.9731 84.8678 22.1809 90.283C30.3887 95.6981 40.0382 98.5881 49.9092 98.5872C63.1447 98.5867 75.8383 93.3935 85.1974 84.1508C94.5565 74.9086 99.8146 62.3731 99.8156 49.3019" fill="white"/>
<path d="M67.3184 23.1641H35.0977V75.0172H67.3184V23.1641Z" fill="#0F2D69"/>
<path d="M67.1762 25.1062H32.7305V73.6646H67.1762V25.1062Z" fill="#0F2D69"/>
<path d="M48.5005 47.4056V45.2281H48.55C49.7064 45.2344 50.8491 44.9779 51.8891 44.4788C52.9296 43.9796 53.8396 43.251 54.5491 42.3492C55.6455 41.0653 56.2528 39.4435 56.2669 37.7642H48.5569V35.619H56.1841C56.0123 34.1653 55.4387 32.7863 54.526 31.6334C52.775 29.4849 50.2978 29.128 48.6628 29.128H44.3086V68.1007H48.5569V53.5595H54.1014V68.0908H58.9101V61.3212C58.9101 52.3181 55.995 47.4056 48.5005 47.4056Z" fill="white"/>
<path d="M48.5005 47.4056V45.2281H48.55C49.7064 45.2344 50.8491 44.9779 51.8891 44.4788C52.9296 43.9796 53.8396 43.251 54.5491 42.3492C55.6455 41.0653 56.2528 39.4435 56.2669 37.7642H48.5569V35.619H56.1841C56.0123 34.1653 55.4387 32.7863 54.526 31.6334C52.775 29.4849 50.2978 29.128 48.6628 29.128H44.3086V68.1007H48.5569V53.5595H54.1014V68.0908H58.9101V61.3212C58.9101 52.3181 55.995 47.4056 48.5005 47.4056Z" stroke="#0F2D69" stroke-miterlimit="10"/>
<path d="M64.9448 70.4848H38.2987V26.9599H50.1211C54.5916 26.9599 56.462 27.7361 58.5775 29.3507C61.6584 31.7348 62.1425 35.1932 62.1425 36.9257C62.1716 39.2197 61.3561 41.4462 59.848 43.1908C58.7116 44.5975 57.2361 45.7 55.5566 46.3971C62.3316 48.7618 64.9448 54.1358 64.9448 62.1173V70.4848ZM49.9257 16.827C43.4158 16.827 37.0523 18.7334 31.6396 22.305C26.227 25.8766 22.0083 30.9532 19.5171 36.8926C17.026 42.832 16.3742 49.3676 17.6441 55.6728C18.9141 61.9781 22.0489 67.7698 26.652 72.3157C31.2551 76.8615 37.1197 79.9572 43.5044 81.2112C49.8889 82.4656 56.5071 81.8219 62.5211 79.3618C68.5352 76.9013 73.6757 72.7352 77.2925 67.3901C80.9089 62.0445 82.8393 55.7601 82.8393 49.3314C82.8375 40.7113 79.3693 32.4447 73.1971 26.3493C67.0252 20.2539 58.6543 16.8287 49.9257 16.827Z" fill="white"/>
<path d="M39.3857 84.9538C38.4771 84.6916 37.8205 84.8882 37.6182 85.5826C37.4325 86.2114 37.8304 86.7321 38.8784 87.0332L40.4503 87.4853L41.0538 85.432L39.3857 84.9538ZM38.8452 88.2289C37.9896 87.983 37.3197 88.1502 37.1108 88.8541C36.9384 89.4436 37.3065 89.9449 38.1621 90.1872L39.5383 90.5836L40.122 88.5955L38.8452 88.2289ZM40.5033 92.0768L37.6182 91.353C37.2523 91.2649 36.9076 91.1067 36.6037 90.887C36.2998 90.6673 36.0428 90.3906 35.8473 90.0724C35.7269 89.8608 35.6526 89.6262 35.6291 89.3843C35.6057 89.1425 35.6337 88.8984 35.7113 88.6674C35.8075 88.3125 36.0082 87.9938 36.2881 87.752C36.568 87.5101 36.9143 87.3555 37.2832 87.3085C36.484 86.7547 36.0131 86.0771 36.3182 85.0387C36.7129 83.7025 38.0393 83.3065 39.7273 83.7911L42.6921 84.6427L40.5033 92.0768Z" fill="#0F2D69"/>
<path d="M30.8099 84.2725C29.9079 83.7486 29.616 83.0736 30.0272 82.3829C30.4782 81.6262 31.2277 81.5312 32.1099 82.0552L33.1611 82.6645L31.8346 84.8819L30.8099 84.2725ZM32.72 80.9779C31.1448 80.0643 29.6525 80.3229 28.8466 81.6854C28.0408 83.0479 28.6245 84.3837 30.15 85.2878L31.2277 85.9135L29.7885 88.3301L30.9724 89.0182L34.9718 82.3043L32.72 80.9779Z" fill="#0F2D69"/>
<path d="M27.7329 77.9465L23.1953 84.32L24.3212 85.102L28.8587 78.7285L27.7329 77.9465Z" fill="#0F2D69"/>
<path d="M7.18509 45.3755C7.09223 46.4821 7.593 46.8587 8.21314 46.9079C9.01896 46.9735 9.48323 46.3085 9.53964 45.5192L9.61259 44.6318L7.29118 44.4451C7.24809 44.8087 7.21159 45.1198 7.19173 45.3755H7.18509ZM13.748 44.9888L10.9192 44.7366L10.8396 45.6896L12.6934 47.2226C13.612 47.9888 13.7877 48.9092 13.486 49.5443L12.2921 49.5642C12.3466 49.3174 12.3325 49.0611 12.2514 48.8215C12.1702 48.5823 12.025 48.3694 11.8311 48.2049L10.4582 47.0322C10.2574 47.473 9.91855 47.8383 9.49164 48.0738C9.06468 48.3097 8.57232 48.4038 8.08709 48.3423C6.72746 48.2343 5.68614 47.4612 5.85855 45.3425C5.87845 45.1198 6.06418 43.4168 6.14045 42.9845L13.9502 43.6101L13.748 44.9888Z" fill="#0F2D69"/>
<path d="M19.8605 73.632C20.3028 73.5362 20.763 73.5575 21.1941 73.6944C21.6252 73.8314 22.0118 74.0787 22.3145 74.4114C22.5587 74.6758 22.7466 74.9855 22.8673 75.3227C22.9879 75.66 23.0387 76.018 23.0168 76.3751C22.9948 76.7318 22.9005 77.0808 22.7394 77.4013C22.5783 77.7218 22.3538 78.007 22.0791 78.2398C20.935 79.2814 19.2768 79.3275 18.2123 78.1942C17.9087 77.8768 17.6921 77.4885 17.583 77.0654C17.4739 76.6427 17.4759 76.1993 17.5888 75.777L16.2027 75.4891C16.0562 76.1721 16.0902 76.881 16.3013 77.5477C16.5125 78.2141 16.8938 78.8158 17.4085 79.2949C17.9232 79.7737 18.5539 80.1141 19.2402 80.2827C19.9265 80.4513 20.6452 80.4427 21.3271 80.2578C22.009 80.0725 22.6313 79.7176 23.1341 79.2262C23.6369 78.7353 24.0033 78.1246 24.1981 77.4533C24.3928 76.782 24.4094 76.0722 24.2463 75.3928C24.0831 74.7134 23.7456 74.0868 23.2663 73.5733C22.8196 73.0787 22.2564 72.7004 21.6265 72.4721C20.9967 72.2433 20.3195 72.1719 19.6549 72.2632L19.8605 73.632Z" fill="#0F2D69"/>
<path d="M11.1667 56.7853L7.85042 55.9667L10.7256 54.1589C10.782 54.601 10.845 55.0399 10.9146 55.4689C10.9843 55.8979 11.0639 56.3401 11.1501 56.779L11.1667 56.7853ZM6.10938 55.5702L6.31501 56.8247L14.8146 58.9828L14.4465 57.5683L12.4733 57.0868C12.3473 56.4874 12.2345 55.8817 12.1416 55.2786C12.0488 54.676 11.9593 54.0603 11.8896 53.4514L13.6207 52.4099L13.5179 50.91L6.10938 55.5702Z" fill="#0F2D69"/>
<path d="M14.5906 62.3004C14.9554 63.2655 15.3589 64.2144 15.801 65.1466L9.89146 68.0121C10.0904 68.4249 10.2927 68.834 10.505 69.2435L16.4112 66.3748C16.8821 67.2762 17.3884 68.1586 17.93 69.0207L12.0105 71.9192C12.2493 72.3089 12.4914 72.6954 12.7434 73.0788L18.7127 70.1901L19.8767 69.6269C17.922 66.8002 16.3865 63.7122 15.3169 60.4565L14.1528 61.0234L8.18359 63.912C8.33614 64.341 8.49864 64.7664 8.66446 65.1922L14.5906 62.3004Z" fill="#0F2D69"/>
<path d="M88.749 37.9115C89.0931 37.8 89.4104 37.6215 89.6831 37.3865C89.9554 37.1514 90.1772 36.8647 90.3354 36.5433C90.4936 36.2219 90.5845 35.8724 90.6031 35.5156C90.6218 35.1588 90.5677 34.8019 90.4436 34.4661C89.9 33.0153 88.3445 32.4324 86.8886 32.9662C86.545 33.0781 86.2272 33.2569 85.9545 33.4922C85.6818 33.7275 85.46 34.0144 85.3013 34.3359C85.1431 34.6575 85.0518 35.0073 85.0327 35.3643C85.0136 35.7214 85.0677 36.0786 85.1909 36.4148C85.7381 37.8656 87.29 38.4486 88.749 37.9115ZM86.3813 31.6234C87.1445 31.3344 87.9777 31.2759 88.7745 31.4556C89.5718 31.6352 90.2968 32.0449 90.8572 32.6324C91.4181 33.2199 91.789 33.9588 91.9236 34.7552C92.0577 35.5515 91.9495 36.3693 91.6118 37.1047C91.2745 37.84 90.7231 38.4596 90.0286 38.8848C89.3336 39.31 88.5263 39.5216 87.7095 39.4926C86.8922 39.4636 86.1027 39.1953 85.4404 38.7219C84.7781 38.2485 84.2736 37.5914 83.9904 36.834C83.7931 36.3375 83.6986 35.807 83.7122 35.2738C83.7263 34.7407 83.8481 34.2157 84.0713 33.7299C84.294 33.2441 84.6131 32.8073 85.01 32.4455C85.4068 32.0837 85.8731 31.8042 86.3813 31.6234Z" fill="#0F2D69"/>
<path d="M89.2653 58.8648C89.6194 58.9407 89.9853 58.9453 90.3412 58.8783C90.6971 58.8114 91.0358 58.6749 91.3372 58.4765C91.6385 58.2776 91.8962 58.0213 92.0953 57.7224C92.2944 57.4236 92.4303 57.0882 92.4953 56.7361C92.7676 55.2135 91.7262 53.936 90.194 53.6675C89.8399 53.5925 89.4744 53.5884 89.1185 53.6553C88.7631 53.7222 88.4244 53.8587 88.1231 54.0572C87.8221 54.2561 87.564 54.512 87.3649 54.8108C87.1658 55.1096 87.0294 55.4445 86.964 55.7962C86.6921 57.3192 87.7367 58.5963 89.2653 58.8648ZM90.4462 52.2562C91.2531 52.3877 92.0017 52.753 92.5976 53.3063C93.1935 53.8592 93.6094 54.5748 93.7921 55.3618C93.9749 56.1488 93.9167 56.972 93.6249 57.7261C93.3326 58.4805 92.8203 59.132 92.1522 59.5976C91.4844 60.0636 90.6912 60.3227 89.874 60.3421C89.0562 60.3615 88.2512 60.1405 87.5617 59.707C86.8717 59.2734 86.3281 58.6469 85.9994 57.9078C85.6712 57.1682 85.5726 56.3486 85.7171 55.5539C85.8012 55.0277 85.9917 54.5233 86.2767 54.0707C86.5617 53.6182 86.9358 53.2268 87.3767 52.9194C87.8176 52.612 88.3162 52.3945 88.8435 52.2806C89.3703 52.1667 89.9153 52.1586 90.4462 52.2562Z" fill="#0F2D69"/>
<path d="M82.9531 29.8484L83.779 27.3169L88.5645 27.9882L87.7154 26.6291L83.5072 26.1575L83.0695 25.5025L85.8086 23.7274L84.9727 22.6303L78.4531 26.8649L79.269 27.9719L81.9949 26.2066L82.5154 26.9926L81.7031 29.2851C81.2718 30.4576 81.1627 31.594 82.0977 32.3702L83.0927 31.7152C82.6581 31.3451 82.6549 30.7327 82.9399 29.8419" fill="#0F2D69"/>
<path d="M68.7248 82.4123L71.2652 83.2934L70.4593 88.0029L71.8557 87.2005L72.4457 83.0574L73.1089 82.6415L74.8366 85.3959L75.9675 84.5998L71.8621 78.05L70.718 78.8262L72.4325 81.5643L71.6234 82.0588L69.3021 81.194C68.1248 80.7356 66.9807 80.5978 66.168 81.5019L66.8016 82.514C67.1893 82.0945 67.7961 82.1076 68.7016 82.4123" fill="#0F2D69"/>
<path d="M84.7847 76.1961L83.9261 77.2444L79.7311 73.4385L81.0111 80.3817L80.0361 81.3052L74.2656 76.0718L75.2574 75.1419L79.4888 78.9834L78.202 71.9748L79.0115 70.9595L84.7847 76.1961Z" fill="#0F2D69"/>
<path d="M66.759 89.6958L65.489 90.1872L63.7444 84.8326L61.3799 91.4941L60.0735 91.8214L57.6758 84.4561L59.0021 84.1283L60.7599 89.5322L63.1476 82.8151L64.3612 82.3273L66.759 89.6958Z" fill="#0F2D69"/>
<path d="M84.0249 69.2241C84.9635 69.6268 86.0844 70.1047 87.0458 70.5897V70.5535C86.3062 69.8985 82.3267 65.5918 82.3267 65.5918L82.8444 64.557C82.8444 64.557 88.6044 65.2414 89.5894 65.4738V65.4512C88.6808 64.9661 87.5767 64.3735 86.6349 63.8464L83.8658 62.2904L84.3631 60.9808L91.2212 64.9399L90.4649 66.7613C90.4649 66.7613 85.1226 66.1881 84.2403 65.9882V66.024C84.9035 66.5972 88.5912 70.5436 88.5912 70.5436L87.5962 72.2171L80.3008 69.1942L81.0735 67.9565L84.0249 69.2241Z" fill="#0F2D69"/>
<path d="M94.1029 47.4418L90.8397 47.7429H90.8197C90.7897 47.0028 90.7401 46.2561 90.6701 45.5192C90.6006 44.7824 90.5079 44.039 90.3983 43.3054H90.4183L93.7047 43.0008L93.4824 41.6483L85.6992 42.3687L85.9183 43.7213L89.1383 43.4233H89.1683C89.281 44.1536 89.3738 44.897 89.4433 45.6372C89.5129 46.3772 89.5629 47.1208 89.5892 47.8608H89.5629L86.346 48.1587L86.3824 49.5312L94.1724 48.8106L94.1029 47.4418Z" fill="#0F2D69"/>
<path d="M79.761 16.6861C79.2883 16.2437 78.7142 15.9205 78.0878 15.7444C77.4615 15.5682 76.801 15.5441 76.1633 15.6742L76.4683 17.0398C76.9792 16.9127 77.5169 16.9387 78.0128 17.1146C78.5087 17.2906 78.9406 17.6083 79.2528 18.0275C79.5651 18.4467 79.7442 18.9482 79.7669 19.4681C79.7892 19.9881 79.6546 20.5029 79.3796 20.9469C78.796 20.3574 78.1928 19.7843 77.5792 19.2308C77.3206 19.0016 77.0583 18.7723 76.7996 18.5496L75.9937 19.4699C76.246 19.6861 76.5015 19.9087 76.7501 20.1249C77.3669 20.6784 77.9706 21.2548 78.551 21.8443C78.0569 22.2244 77.4428 22.4198 76.8169 22.3959C76.1915 22.3718 75.5942 22.1301 75.1319 21.7133C74.7915 21.4178 74.5365 21.0383 74.3928 20.6137C74.2496 20.1891 74.2233 19.7344 74.316 19.2963L72.9328 19.1063C72.846 19.7631 72.9242 20.431 73.1606 21.0508C73.3974 21.6706 73.7851 22.2233 74.2892 22.6598C74.6837 23.032 75.1501 23.3223 75.6601 23.5136C76.1701 23.7049 76.7137 23.7932 77.2592 23.7735C77.8046 23.7537 78.3401 23.6262 78.8346 23.3985C79.3292 23.1707 79.7724 22.8474 80.1383 22.4476C80.5042 22.0478 80.7851 21.5796 80.9646 21.0707C81.1442 20.5619 81.2183 20.0227 81.1833 19.4849C81.1478 18.9472 81.0042 18.4219 80.7596 17.9401C80.5156 17.4582 80.176 17.0296 79.761 16.6796" fill="#0F2D69"/>
<path d="M39.9934 10.5717C39.8948 10.2275 39.7272 9.90637 39.5005 9.62736C39.2738 9.34839 38.9926 9.11726 38.6737 8.94769C38.3547 8.77817 38.0045 8.67366 37.6439 8.64039C37.2832 8.60711 36.9195 8.64577 36.5743 8.75408C35.0853 9.23222 34.432 10.742 34.9161 12.2027C35.0151 12.5466 35.183 12.8675 35.4097 13.1462C35.6366 13.425 35.9177 13.6559 36.2366 13.8254C36.5554 13.9949 36.9054 14.0995 37.2659 14.1329C37.6264 14.1664 37.99 14.1281 38.3352 14.0203C39.8242 13.5422 40.4775 12.0324 39.9934 10.5717ZM33.5167 12.6448C33.2554 11.879 33.2307 11.0537 33.4456 10.2739C33.6606 9.49414 34.1055 8.79512 34.7238 8.26572C35.3421 7.73632 36.1058 7.40049 36.9179 7.30095C37.73 7.20136 38.5537 7.34258 39.2844 7.70658C40.015 8.07057 40.6195 8.64093 41.021 9.34514C41.4225 10.0493 41.6028 10.8555 41.5391 11.6612C41.4754 12.4669 41.1705 13.2357 40.6632 13.8698C40.1558 14.5039 39.469 14.9746 38.6901 15.2222C38.1794 15.396 37.6386 15.4669 37.0997 15.4308C36.5608 15.3947 36.0346 15.2524 35.5524 15.0121C35.0701 14.7718 34.6415 14.4385 34.2919 14.032C33.9422 13.6253 33.6786 13.1537 33.5167 12.6448Z" fill="#0F2D69"/>
<path d="M31.3157 16.0574L28.7788 15.16L29.6145 10.4571L28.2117 11.2529L27.5982 15.4023L26.9151 15.815L25.2039 13.0542L24.0664 13.8435L28.1355 20.4131L29.2829 19.6468L27.585 16.8991L28.3975 16.4078L30.7188 17.2855C31.8928 17.7505 33.0402 17.8947 33.856 16.9973L33.2259 15.9788C32.8379 16.398 32.231 16.3783 31.329 16.0705" fill="#0F2D69"/>
<path d="M24.0518 22.257C23.2913 22.9644 22.564 23.7013 21.8698 24.4676L16.8954 20.2101C16.587 20.5376 16.2852 20.8946 15.9867 21.245L20.9611 25.5025C20.2978 26.2819 19.6733 27.0865 19.0874 27.9162L14.0733 23.6587C13.8013 24.0255 13.5393 24.3988 13.2773 24.7755L18.2982 29.0657L19.293 29.9008C21.164 27.0225 23.4408 24.4221 26.0549 22.1784L25.06 21.34L20.0425 17.0563C19.7109 17.3608 19.3793 17.6752 19.0476 17.9929L24.0518 22.257Z" fill="#0F2D69"/>
<path d="M55.8772 10.7388L57.7708 7.94848L58.5235 11.2235C58.0826 11.1285 57.6417 11.0401 57.1972 10.9582C56.7526 10.8763 56.3149 10.801 55.8708 10.7355L55.8772 10.7388ZM58.7226 6.45833L57.4626 6.22253L52.5312 13.3948L54.0035 13.5291L55.1276 11.8588C55.7412 11.9407 56.3581 12.0389 56.9649 12.1536C57.5717 12.2682 58.1853 12.3959 58.7922 12.5367L59.2103 14.5018L60.6758 14.9111L58.7226 6.45833Z" fill="#0F2D69"/>
<path d="M48.045 5.6199L45.0604 5.84263L44.8647 5.86555L44.9576 7.08058L44.9808 7.4081C45.3389 12.0553 44.6492 12.6121 43.8367 12.671C43.6844 12.682 43.5313 12.671 43.3823 12.6383L43.3359 13.7681C43.6548 13.8191 43.9783 13.8367 44.301 13.8205C45.8495 13.7026 46.6854 12.6481 46.2909 7.70939L46.2309 6.96924L46.6254 6.93647C47.4018 6.87752 48.1809 6.84149 48.9473 6.82183L49.4509 13.3424L50.8309 13.2376L50.3363 6.81532L50.2436 5.59698C49.5009 5.59698 48.7513 5.59698 48.0086 5.63631" fill="#0F2D69"/>
<path d="M51.5049 89.2013C51.5049 88.893 51.4122 88.5915 51.2385 88.3351C51.0653 88.0788 50.8185 87.879 50.5304 87.761C50.2417 87.643 49.9244 87.6123 49.6181 87.6724C49.3122 87.7325 49.0308 87.8813 48.8099 88.0992C48.589 88.3171 48.439 88.5951 48.3781 88.897C48.3172 89.1995 48.3481 89.5132 48.4676 89.798C48.5872 90.0828 48.7894 90.3264 49.049 90.4978C49.309 90.6686 49.614 90.7604 49.9263 90.7604C50.3449 90.7604 50.7463 90.5959 51.0422 90.3038C51.3385 90.0114 51.5049 89.6149 51.5049 89.2013Z" fill="#0F2D69"/>
<path d="M11.88 35.9236C12.1697 36.0378 12.4873 36.0647 12.7925 36.0009C13.0977 35.937 13.3769 35.7852 13.5948 35.5648C13.8128 35.3443 13.9597 35.065 14.0169 34.7622C14.0743 34.4593 14.0394 34.1464 13.9168 33.8631C13.7942 33.5798 13.5893 33.3387 13.328 33.1703C13.0668 33.0019 12.7608 32.9138 12.4488 32.917C12.1369 32.9202 11.8328 33.0146 11.5752 33.1883C11.3175 33.362 11.1178 33.6073 11.0012 33.8931C10.9235 34.0833 10.8847 34.2869 10.8868 34.492C10.889 34.6971 10.9321 34.8998 11.0138 35.0885C11.0954 35.2771 11.2139 35.448 11.3626 35.5913C11.5113 35.7346 11.687 35.8475 11.88 35.9236Z" fill="#0F2D69"/>
<path d="M66.7279 13.0477C66.5874 13.3228 66.5324 13.6329 66.5702 13.9389C66.6074 14.2449 66.7365 14.533 66.9397 14.7667C67.1434 15.0005 67.4124 15.1694 67.7129 15.2522C68.0138 15.3349 68.3324 15.3278 68.6293 15.2317C68.9256 15.1356 69.1865 14.9548 69.3793 14.7123C69.572 14.4697 69.6874 14.1762 69.7111 13.8688C69.7347 13.5614 69.6656 13.2541 69.5124 12.9855C69.3593 12.7169 69.1288 12.4992 68.8502 12.3599C68.4765 12.1738 68.0429 12.1417 67.6452 12.2706C67.2474 12.3995 66.9174 12.679 66.7279 13.0477Z" fill="#0F2D69"/>
</g>
<defs>
<clipPath id="clip0_255_833">
<rect width="100" height="99" fill="white"/>
</clipPath>
</defs>
</svg>
